<svg xmlns="http://www.w3.org/2000/svg" width="653.849" height="615" viewBox="0 0 653.849 615">
  <g id="undraw_feeling_proud_qne1" transform="translate(-0.001 0.028)">
    <path id="Trazado_1" data-name="Trazado 1" d="M516.326,380.018V550.1l28.449,46.364,2.165,3.527H659.193l2.268-219.971Z" transform="translate(-41.628 -31.357)" fill="#e6e6e6"/>
    <path id="Trazado_2" data-name="Trazado 2" d="M516.326,380.018V550.1l28.449,46.364,1.746-216.444Z" transform="translate(-41.628 -31.357)" opacity="0.1"/>
    <path id="Trazado_3" data-name="Trazado 3" d="M208.839,375.084V545.165l-28.449,46.364-2.165,3.526H65.971L63.7,375.084Z" transform="translate(-5.136 -30.959)" fill="#e6e6e6"/>
    <path id="Trazado_4" data-name="Trazado 4" d="M218.918,375.084V545.165l-28.449,46.364-1.746-216.445Z" transform="translate(-15.215 -30.959)" opacity="0.1"/>
    <path id="Trazado_5" data-name="Trazado 5" d="M657.693,368.4v10.2H47.67v-14.74l56.693-29.481H607.8Z" transform="translate(-3.843 -27.347)" fill="#e6e6e6"/>
    <path id="Trazado_6" data-name="Trazado 6" d="M657.693,370.987v10.2H47.67v-14.74Z" transform="translate(-3.843 -29.949)" opacity="0.1"/>
    <path id="Trazado_7" data-name="Trazado 7" d="M139.254,426.187H112.041L100.7,418.25h51.024Z" transform="translate(-8.119 -34.176)" fill="#3f3d56"/>
    <path id="Trazado_8" data-name="Trazado 8" d="M139.254,461.953H112.041L100.7,454.016h51.024Z" transform="translate(-8.119 -37.099)" fill="#3f3d56"/>
    <path id="Trazado_9" data-name="Trazado 9" d="M139.254,512.519H112.041L100.7,504.581h51.024Z" transform="translate(-8.119 -41.23)" fill="#3f3d56"/>
    <path id="Trazado_10" data-name="Trazado 10" d="M139.254,563.084H112.041L100.7,555.147h51.024Z" transform="translate(-8.119 -45.477)" fill="#3f3d56"/>
    <path id="Trazado_11" data-name="Trazado 11" d="M594.163,431.12h27.214l11.339-7.937H581.691Z" transform="translate(-46.898 -34.58)" fill="#3f3d56"/>
    <path id="Trazado_12" data-name="Trazado 12" d="M594.163,466.886h27.214l11.339-7.937H581.691Z" transform="translate(-46.898 -37.502)" fill="#3f3d56"/>
    <path id="Trazado_13" data-name="Trazado 13" d="M594.163,517.452h27.214l11.339-7.937H581.691Z" transform="translate(-46.898 -41.634)" fill="#3f3d56"/>
    <path id="Trazado_14" data-name="Trazado 14" d="M594.163,568.017h27.214l11.339-7.937H581.691Z" transform="translate(-46.898 -45.874)" fill="#3f3d56"/>
    <path id="Trazado_15" data-name="Trazado 15" d="M838.97,235.615h-229.1a8.663,8.663,0,0,0-8.664,8.665V398.6a8.663,8.663,0,0,0,8.665,8.664h86.965l-3.258,20.8s-18.62,9.892-5.528,10.183,74.771,0,74.771,0,11.928,0-6.982-10.474l-3.065-20.511h86.191a8.663,8.663,0,0,0,8.664-8.665V244.279a8.663,8.663,0,0,0-8.665-8.664Z" transform="translate(-273.173 -125.065)" fill="#3f3d56"/>
    <rect id="Rectángulo_4" data-name="Rectángulo 4" width="229.84" height="128.594" transform="translate(336.329 119.73)" fill="#f2f2f2"/>
    <circle id="Elipse_1" data-name="Elipse 1" cx="1.455" cy="1.455" r="1.455" transform="translate(449.795 114.379)" fill="#f2f2f2"/>
    <circle id="Elipse_2" data-name="Elipse 2" cx="5.528" cy="5.528" r="5.528" transform="translate(445.721 264.771)" fill="#f2f2f2"/>
    <path id="Trazado_16" data-name="Trazado 16" d="M467.726,357.034v2.91H311.2v-2.328l.215-.582,3.858-10.474H464.525Z" transform="translate(-25.09 -28.322)" fill="#3f3d56"/>
    <path id="Trazado_17" data-name="Trazado 17" d="M787.522,469.134c-.285,1.219-1.362,2.505-3.794,3.721-8.728,4.364-26.475-1.164-26.475-1.164s-13.674-2.328-13.674-8.437a10.9,10.9,0,0,1,1.2-.713c3.67-1.941,15.837-6.732,37.41.2a9,9,0,0,1,4.1,2.687,4.291,4.291,0,0,1,1.234,3.7Z" transform="translate(-284.651 -143.27)" fill="#3f3d56"/>
    <path id="Trazado_18" data-name="Trazado 18" d="M787.628,469.134c-10.683,4.094-20.206,4.4-29.978-2.389a21.461,21.461,0,0,0-12.766-4.2c3.669-1.941,15.836-6.732,37.41.2a9,9,0,0,1,4.1,2.687,4.291,4.291,0,0,1,1.234,3.7Z" transform="translate(-284.756 -143.268)" opacity="0.1"/>
    <ellipse id="Elipse_3" data-name="Elipse 3" cx="3.782" cy="1.164" rx="3.782" ry="1.164" transform="translate(485.694 321.15)" fill="#f2f2f2"/>
    <path id="Trazado_19" data-name="Trazado 19" d="M467.726,357.952v2.91H311.2v-2.328l.215-.582Z" transform="translate(-25.09 -29.246)" opacity="0.1"/>
    <path id="Trazado_20" data-name="Trazado 20" d="M336.5,115.157a7.864,7.864,0,0,0-4.561,1.019,11.9,11.9,0,0,0-3.085,4.072,48.714,48.714,0,0,1-13.271,14.99c-3.943,2.889-8.956,6.49-8.282,11.816a15.97,15.97,0,0,0,1.922,4.988c3.638,7.343,13.564,13.018,12.588,21.4,3.614-6.05-1.22-9.042,2.394-15.092,1.721-2.881,4.711-6.134,7.31-4.324.87.606,1.441,1.693,2.347,2.224,2.162,1.268,4.461-1.157,6.375-2.874,6.6-5.923,15.982-4.371,24.192-2.526,3.876.871,8.134,2.014,10.425,5.719,3.013,4.871-2.862,10.132-4.347,15.639a3,3,0,0,0,3.22,3.735c2.464-.243,5.382-.442,5.528-1.523,3.1.11,6.9-.241,8.226-3.468a13.571,13.571,0,0,0,.637-3.947c.487-5.422,2.789-10.368,4.313-15.528s2.187-11.208-.385-15.783a18.264,18.264,0,0,0-3.37-4.1C374.079,117.465,354.885,115.136,336.5,115.157Z" transform="translate(-249.472 -115.159)" fill="#2f2e41"/>
    <path id="Trazado_21" data-name="Trazado 21" d="M325.506,189.622s3.175,26.458-8.467,28.575,10.583,38.1,10.583,38.1l52.916,6.35-12.7-42.333s-8.467-3.175-3.175-24.342S325.506,189.622,325.506,189.622Z" transform="translate(-249.99 -120.758)" fill="#e5a5a5"/>
    <path id="Trazado_22" data-name="Trazado 22" d="M47.028,569.318l4.234,58.208H73.486l-6.349-58.208Z" transform="translate(-3.792 -46.619)" fill="#e5a5a5"/>
    <path id="Trazado_23" data-name="Trazado 23" d="M224.3,449.414l3.175,48.683,24.342-10.583L242.294,447.3Z" transform="translate(-18.084 -36.587)" fill="#e5a5a5"/>
    <path id="Trazado_24" data-name="Trazado 24" d="M274.167,438.769s1.058,61.383,7.408,81.491,5.292,21.167,4.233,24.341-2.117,1.058-2.117,6.35-2.117,88.9,0,96.307-6.35,20.108,0,21.167,35.983,0,37.042-6.35-8.467-8.467-4.233-12.7,10.583-91.016,10.583-91.016L341.9,498.035l27.516-31.75h58.208l17.992,69.85s-7.408,20.108-2.117,20.108,37.042,6.35,37.042-16.933-10.584-92.074-12.7-94.191,1.058-9.525-2.117-12.7-40.216-25.4-53.975-29.633-33.059-9.272-33.059-9.272Z" transform="translate(-246.805 -138.32)" fill="#2f2e41"/>
    <path id="Trazado_25" data-name="Trazado 25" d="M496.167,596.917s-15.875-5.292-23.283,10.583-4.233,20.108-4.233,20.108,24.342,8.467,28.575,4.233c1.842-1.842,7.69-2.482,13.71-2.617,9.169-.206,11.608-13.178,2.949-16.2q-.387-.135-.784-.235C504.633,610.674,496.167,596.917,496.167,596.917Z" transform="translate(-262.431 -154.481)" fill="#2f2e41"/>
    <circle id="Elipse_4" data-name="Elipse 4" cx="31.75" cy="31.75" r="31.75" transform="translate(67.578 22.827)" fill="#e5a5a5"/>
    <path id="Trazado_26" data-name="Trazado 26" d="M305.23,234.729s51.858,10.583,64.558-6.35S387.779,276,387.779,276l6.35,67.733L384.6,380.778s-49.741,40.216-65.616,43.391-40.216,5.292-40.216,5.292,7.408-117.474,7.408-119.591S305.23,234.729,305.23,234.729Z" transform="translate(-247.177 -124.238)" fill="#f5b618"/>
    <path id="Trazado_27" data-name="Trazado 27" d="M319.016,213.681s-11.538-6.61-14.713-.26-32.808,22.224-35.982,22.224,6.35,87.841,2.117,98.425-24.342,87.841-12.7,94.191,3.175-6.35,14.817,9.525,68.791,15.875,71.966,9.525-25.4-53.975-20.108-98.425,13.758-105.833,6.35-114.3S319.016,213.681,319.016,213.681Z" transform="translate(-245.192 -122.861)" fill="#2f2e41"/>
    <path id="Trazado_28" data-name="Trazado 28" d="M366.258,221.275l1.474-5.073s44.034,14.6,46.151,24.123,1.058,76.2-6.35,81.491-17.992,13.758-10.583,26.458,15.875,26.458,22.225,27.516,17.992,8.467,14.817,15.875-41.275-6.35-41.275-6.35-25.4-19.05-24.341-48.683S366.258,221.275,366.258,221.275Z" transform="translate(-254.23 -123.459)" fill="#2f2e41"/>
    <path id="Trazado_29" data-name="Trazado 29" d="M402.356,357.554l-25.4,47.625s-37.042,38.1-15.875,42.333,32.808-34.925,32.808-34.925l27.517-39.158Z" transform="translate(-253.286 -135.008)" fill="#e5a5a5"/>
    <path id="Trazado_30" data-name="Trazado 30" d="M338.661,124.193a7.206,7.206,0,0,0-3.713.72,8.654,8.654,0,0,0-2.512,2.878,36.567,36.567,0,0,1-10.8,10.595c-3.21,2.042-7.291,4.587-6.742,8.352a10.444,10.444,0,0,0,1.565,3.526,27.732,27.732,0,0,1,3.37,17.285l8.826-12.829c1.4-2.036,3.835-4.335,5.95-3.056.708.428,1.173,1.2,1.911,1.572,1.76.9,3.632-.817,5.189-2.032,5.371-4.186,13.01-3.09,19.694-1.785,3.155.616,6.621,1.424,8.487,4.042,3.1,4.352-.137,10.639,1.672,15.666a4.618,4.618,0,0,0,1.911-3.05c2.523.078,5.615-.17,6.7-2.451a8.448,8.448,0,0,0,.518-2.79c.4-3.832,2.27-7.328,3.511-10.975s1.78-7.922-.314-11.155a13.5,13.5,0,0,0-2.744-2.9C369.251,125.825,353.626,124.178,338.661,124.193Z" transform="translate(-250.085 -115.888)" fill="#2f2e41"/>
    <path id="Trazado_31" data-name="Trazado 31" d="M405.806,237.836l9.861,2.617s22.948,58.766,17.656,98.982-8.467,31.75-8.467,31.75-8.467-19.05-27.517-14.817Z" transform="translate(-256.736 -125.219)" fill="#2f2e41"/>
    <path id="Trazado_32" data-name="Trazado 32" d="M291.5,739.151c-2.552,3.468-2.04,8.426-4.3,12.091-1.96,3.177-5.653,4.842-8.1,7.657a20.534,20.534,0,0,0-2.083,3c-2.274,3.809-4.122,8.69-1.883,12.519,1.8,3.08,5.588,4.284,9.06,5.1,4.389,1.037,8.95,1.867,13.389,1.075s8.779-3.511,10.362-7.734a29.886,29.886,0,0,1,1.108-3.126c2.406-4.738,9.955-4.789,12.417-9.5,1.724-3.3.139-7.278-1.444-10.643l-4.837-10.276c-1.605-3.41-8.112-1.449-11.5-2.266C299.26,735.984,294.687,734.81,291.5,739.151Z" transform="translate(-246.802 -165.937)" fill="#2f2e41"/>
    <path id="Trazado_33" data-name="Trazado 33" d="M254.6,379.927l44.45,68.791s27.516,34.925,35.983,19.05S305.4,425.435,305.4,425.435l-28.575-52.916Z" transform="translate(-245.228 -136.239)" fill="#e5a5a5"/>
    <path id="Trazado_34" data-name="Trazado 34" d="M276,239.952l-8.467-2.116s-16.933,5.292-21.167,27.516S245.31,376.477,250.6,377.535s26.135-15.479,29.472-11.973-7.247-14.485-4.072-24.01S276,239.952,276,239.952Z" transform="translate(-244.406 -125.221)" fill="#2f2e41"/>
    <g id="Group_13" data-name="Group 13" transform="translate(367.696 161.937)">
      <rect id="Rectangle_55" data-name="Rectangle 55" width="27.354" height="6.585" transform="translate(34.445)" fill="#f5b618"/>
      <rect id="Rectangle_56" data-name="Rectangle 56" width="9.624" height="6.585" transform="translate(146.899)" fill="#f5b618"/>
      <rect id="Rectangle_57" data-name="Rectangle 57" width="9.624" height="6.585" transform="translate(166.148)" fill="#f5b618"/>
      <rect id="Rectangle_58" data-name="Rectangle 58" width="65.345" height="6.585" transform="translate(71.424)" fill="#f5b618"/>
      <rect id="Rectangle_59" data-name="Rectangle 59" width="27.354" height="6.585" transform="translate(0 42.55)" fill="#f5b618"/>
      <rect id="Rectangle_60" data-name="Rectangle 60" width="9.624" height="6.585" transform="translate(112.454 42.55)" fill="#f5b618"/>
      <rect id="Rectangle_61" data-name="Rectangle 61" width="9.624" height="6.585" transform="translate(131.702 42.55)" fill="#f5b618"/>
      <rect id="Rectangle_62" data-name="Rectangle 62" width="65.345" height="6.585" transform="translate(36.978 42.55)" fill="#f5b618"/>
      <rect id="Rectangle_63" data-name="Rectangle 63" width="27.354" height="6.585" transform="translate(112.96 14.69)" fill="#f5b618"/>
      <rect id="Rectangle_64" data-name="Rectangle 64" width="27.354" height="6.585" transform="translate(149.938 14.69)" fill="#f5b618"/>
      <rect id="Rectangle_66" data-name="Rectangle 66" width="9.624" height="6.585" transform="translate(0 14.69)" fill="#f5b618"/>
      <rect id="Rectangle_67" data-name="Rectangle 67" width="9.624" height="6.585" transform="translate(19.249 14.69)" fill="#f5b618"/>
      <rect id="Rectangle_68" data-name="Rectangle 68" width="65.345" height="6.585" transform="translate(38.498 14.69)" fill="#f5b618"/>
      <rect id="Rectangle_69" data-name="Rectangle 69" width="27.354" height="6.585" transform="translate(56.227 28.873)" fill="#f5b618"/>
      <rect id="Rectangle_70" data-name="Rectangle 70" width="27.354" height="6.585" transform="translate(19.249 28.873)" fill="#f5b618"/>
      <rect id="Rectangle_71" data-name="Rectangle 71" width="9.624" height="6.585" transform="translate(0 28.873)" fill="#f5b618"/>
      <rect id="Rectangle_73" data-name="Rectangle 73" width="9.624" height="6.585" transform="translate(167.668 28.873)" fill="#f5b618"/>
      <rect id="Rectangle_74" data-name="Rectangle 74" width="65.345" height="6.585" transform="translate(92.698 28.873)" fill="#f5b618"/>
    </g>
  </g>
</svg>
