<svg xmlns="http://www.w3.org/2000/svg" width="1602.902" height="843.875" viewBox="0 0 1602.902 843.875">
  <g id="undraw_web_development_w2vv" transform="translate(0 0)">
    <path id="Trazado_36" data-name="Trazado 36" d="M1478.648,506.458l-151.69,71.794,134.255-100.389a757.6,757.6,0,0,0-73.3-96.46L730.034,544.922l594.247-226.686a757.489,757.489,0,0,0-86.293-65.774L235.54,413.93A751.275,751.275,0,0,0,71,882.774H1579.959a750.87,750.87,0,0,0-101.311-376.317Z" transform="translate(-71.003 -129.801)" fill="#f2f2f2"/>
    <path id="Trazado_37" data-name="Trazado 37" d="M1096.57,247.548A751.416,751.416,0,0,0,766.106,171.5c-233.058,0-441.422,105.678-579.819,271.72C423.278,391.293,835.9,301.4,1096.57,247.548Z" transform="translate(-11.628 -171.5)" fill="#f2f2f2"/>
    <path id="Trazado_38" data-name="Trazado 38" d="M1397.653,669.385c0,23.428-217.736,93.932-486.326,93.932S425,692.813,425,669.385s217.736,9.09,486.326,9.09S1397.653,645.956,1397.653,669.385Z" transform="translate(111.318 80.558)" fill="#3f3d56"/>
    <path id="Trazado_39" data-name="Trazado 39" d="M1397.653,669.385c0,23.428-217.736,93.932-486.326,93.932S425,692.813,425,669.385s217.736,9.09,486.326,9.09S1397.653,645.956,1397.653,669.385Z" transform="translate(111.318 80.558)" opacity="0.1"/>
    <ellipse id="Elipse_5" data-name="Elipse 5" cx="486.5" cy="42" rx="486.5" ry="42" transform="translate(536 708)" fill="#3f3d56"/>
    <path id="Trazado_40" data-name="Trazado 40" d="M656.644,441.17s19.56,31.024,12.575,39.423,52.41,8.61,52.41,8.61-8.922-45.13-6.3-55.516Z" transform="translate(230.623 -36.464)" fill="#ffb8b8"/>
    <path id="Trazado_41" data-name="Trazado 41" d="M656.644,441.17s19.56,31.024,12.575,39.423,52.41,8.61,52.41,8.61-8.922-45.13-6.3-55.516Z" transform="translate(230.623 -36.464)" opacity="0.1"/>
    <path id="Trazado_42" data-name="Trazado 42" d="M701.494,453.5v36.361l36.361-7.575-3.03-25.756Z" transform="translate(361.294 233.569)" fill="#ffb8b8"/>
    <path id="Trazado_43" data-name="Trazado 43" d="M864.04,629l101.507,16.665-25.756,37.876S868.585,659.3,850.4,659.3,864.04,629,864.04,629Z" transform="translate(327.526 64.129)" fill="#e5a5a5"/>
    <path id="Trazado_44" data-name="Trazado 44" d="M711.677,609.385s75.752-87.872,99.992-83.327,34.846,31.816,34.846,31.816l13.635,134.838s-48.481,4.545-48.481,0S802.58,591.2,802.58,591.2,731.373,748.768,693.5,644.231Z" transform="translate(249.603 11.022)" fill="#2f2e41"/>
    <path id="Trazado_45" data-name="Trazado 45" d="M624.5,638.391s1.515,75.752,46.966,80.3,95.447-30.3,95.447-30.3l81.812-39.194s96.962,51.314,125.748,37.679c0,0,30.3-31.816,10.605-40.906s-1.515,0-1.515,0L866.9,585.365s-22.726-6.06-62.116,10.605-92.417,24.241-92.417,24.241Z" transform="translate(214.066 41.102)" fill="#2f2e41"/>
    <path id="Trazado_46" data-name="Trazado 46" d="M769.885,529.8l-3.03,63.631s1.515,83.327-12.12,89.387c-6.893,3.06-20.741,9.211-33.543,15.938-9.605,5.03-18.62,10.363-23.65,14.953a16.957,16.957,0,0,0-3.409,3.954c-6.06,10.605-45.451,9.09-54.541,1.515s-3.03,9.09-10.605,12.12c-7.333,2.939-17.5-21.089-11.272-56.965.2-1.2.424-2.409.667-3.636,6.954-34.77-3.969-118.052-2.288-150.231a56.606,56.606,0,0,1,.773-7.333c4.545-24.241,62.541-73.57,73.388-52.557,13.363,25.937,44.057,2.242,49.329-9.56,30.3-1.515,40.906,34.846,40.906,34.846Z" transform="translate(209.576 -27.563)" fill="#3f3d56"/>
    <path id="Trazado_47" data-name="Trazado 47" d="M815.472,640s-24.24,9.09-31.816,7.575-15.15,4.545-15.15,13.635-9.09,30.3,4.545,31.816,69.692-1.515,81.812,3.03c0,0,54.541,1.515,50-21.21s-27.271-21.211-27.271-21.211S815.472,650.605,815.472,640Z" transform="translate(286.707 69.794)" fill="#2f2e41"/>
    <path id="Trazado_48" data-name="Trazado 48" d="M925.97,646.09S929,637,933.545,637s40.906,6.06,45.451,4.545,57.571-4.545,48.481,21.211-39.391,28.786-39.391,28.786-54.541-6.06-62.116-4.545-34.846,0-30.3-7.575S929,658.21,925.97,646.09Z" transform="translate(353.468 68.249)" fill="#2f2e41"/>
    <path id="Trazado_49" data-name="Trazado 49" d="M837.672,499.92l8.312,34.286a2.143,2.143,0,0,1-.042,1.157l-37.7,117.824a2.142,2.142,0,0,1-4.167-.411l-5.216-45.9a2.142,2.142,0,0,1,.092-.905l34.608-106.211a2.142,2.142,0,0,1,4.117.159Z" transform="translate(303.859 -3.195)" fill="#d0cde1"/>
    <path id="Trazado_50" data-name="Trazado 50" d="M762.755,329.775l7.674,29.416L737.174,466.627,729.5,433.373Z" transform="translate(375.718 169.846)" fill="#f2f2f2"/>
    <path id="Trazado_51" data-name="Trazado 51" d="M711.944,626.8c1.279,3.837,133.016-1.279,134.295-2.558a27.757,27.757,0,0,0,2.814-5.116c1.2-2.558,2.3-5.116,2.3-5.116L846.238,572.6l-130.458-4.63s-3.261,35.1-3.927,51.16a38.368,38.368,0,0,0,.09,7.674Z" transform="translate(258.98 32.695)" fill="#d0cde1"/>
    <path id="Trazado_52" data-name="Trazado 52" d="M737.222,403.22l2.557,35.812H682.225V403.22Z" transform="translate(351.37 207.673)" opacity="0.1"/>
    <path id="Trazado_53" data-name="Trazado 53" d="M680.867,410.841l.344-.068-1.623,15.417H647.612V410.841Z" transform="translate(333.543 211.563)" opacity="0.1"/>
    <path id="Trazado_54" data-name="Trazado 54" d="M711.943,609.409c1.279,3.837,133.016-1.279,134.295-2.558a27.757,27.757,0,0,0,2.814-5.116h-137.2a38.377,38.377,0,0,0,.089,7.674Z" transform="translate(258.98 50.086)" opacity="0.1"/>
    <path id="Trazado_59" data-name="Trazado 59" d="M721.146,676.592c-3.742,7.075-8.136,14.423-8.878,17.393-.5,2.015-6.045.848-14.771-2.439-17.5-6.621-47.83-21.786-76.131-36.952a23.9,23.9,0,0,1-3.7-2.424c.2-1.2.424-2.409.667-3.636,6.954-34.77-3.969-118.052-2.288-150.231l12.893-4.3L654.7,518.241V621.263s66.661,36.361,71.207,39.391C728.221,662.2,725.024,669.244,721.146,676.592Z" transform="translate(209.622 -5.401)" opacity="0.1"/>
    <path id="Trazado_60" data-name="Trazado 60" d="M728.193,560.192,769.1,581.4s24.241-25.756,39.391-6.06S764.554,601.1,764.554,601.1s-51.511-12.12-53.026-28.786S728.193,560.192,728.193,560.192Z" transform="translate(258.843 28.399)" fill="#e5a5a5"/>
    <path id="Trazado_61" data-name="Trazado 61" d="M680.766,603.052l24.241,6.06s27.271-33.331,56.056-21.211S724.7,624.263,724.7,624.263s-34.846,18.18-48.481,3.03S680.766,603.052,680.766,603.052Z" transform="translate(238.094 41.595)" fill="#e5a5a5"/>
    <path id="Trazado_62" data-name="Trazado 62" d="M720.223,465c1.515,1.515,18.18,13.635,18.18,13.635s4.545,57.571-1.515,69.692-10.605,12.12-6.06,18.18,10.605,1.515,4.545,12.12-12.12,9.09-7.575,13.635,3.03,6.06,3.03,6.06l18.18,15.15s-11.154,17.766-25.273,16.458S697.5,560.447,697.5,560.447Z" transform="translate(251.663 -20.337)" fill="#3f3d56"/>
    <path id="Trazado_63" data-name="Trazado 63" d="M634.063,489l-13.635,4.545s-36.361,133.323,6.06,156.049,89.387,45.451,90.9,39.391,18.18-30.3,13.635-33.331-71.207-39.391-71.207-39.391V513.241Z" transform="translate(204.5 -7.976)" fill="#3f3d56"/>
    <path id="Trazado_64" data-name="Trazado 64" d="M568.024,354l-3.03,72.722,80.3,37.876-74.237-37.876Z" transform="translate(290.992 182.323)" opacity="0.1"/>
    <path id="Trazado_65" data-name="Trazado 65" d="M1098.566,637.339c-30.536,18.005-42.555,54.2-42.555,54.2s37.489,7,68.025-11,42.555-54.2,42.555-54.2S1129.094,619.334,1098.566,637.339Z" transform="translate(436.311 62.067)" fill="#3f3d56"/>
    <path id="Trazado_66" data-name="Trazado 66" d="M1109.8,663.736c-17.1,31.052-52.925,44.13-52.925,44.13s-8.1-37.267,9-68.319,52.925-44.13,52.925-44.13S1126.908,632.685,1109.8,663.736Z" transform="translate(435.77 46.833)" fill="#f5b618"/>
    <circle id="Elipse_9" data-name="Elipse 9" cx="6" cy="6" r="6" transform="translate(27 339)" fill="#f5b618"/>
    <circle id="Elipse_10" data-name="Elipse 10" cx="6" cy="6" r="6" transform="translate(44 339)" fill="#f5b618"/>
    <circle id="Elipse_11" data-name="Elipse 11" cx="6" cy="6" r="6" transform="translate(61 339)" fill="#f5b618"/>
    <rect id="Rectángulo_6" data-name="Rectángulo 6" width="87.872" height="9.09" transform="translate(119.678 574.006)" fill="#f5b618" opacity="0.3"/>
    <rect id="Rectángulo_7" data-name="Rectángulo 7" width="83.122" height="9.09" transform="translate(119.678 593.702)" fill="#f5b618" opacity="0.3"/>
    <rect id="Rectángulo_8" data-name="Rectángulo 8" width="60.561" height="9.09" transform="translate(119.678 613.397)" fill="#f5b618" opacity="0.3"/>
    <g id="Grupo_2" data-name="Grupo 2" transform="translate(324.208 574.006)" opacity="0.3">
      <rect id="Rectángulo_9" data-name="Rectángulo 9" width="87.872" height="9.09" fill="#f5b618"/>
      <rect id="Rectángulo_10" data-name="Rectángulo 10" width="83.122" height="9.09" transform="translate(0 19.695)" fill="#f5b618"/>
      <rect id="Rectángulo_11" data-name="Rectángulo 11" width="60.561" height="9.09" transform="translate(0 39.391)" fill="#f5b618"/>
      <rect id="Rectángulo_12" data-name="Rectángulo 12" width="87.872" height="9.09" fill="#f5b618" opacity="0.3"/>
      <rect id="Rectángulo_13" data-name="Rectángulo 13" width="83.122" height="9.09" transform="translate(0 19.695)" fill="#f5b618" opacity="0.3"/>
      <rect id="Rectángulo_14" data-name="Rectángulo 14" width="60.561" height="9.09" transform="translate(0 39.391)" fill="#f5b618" opacity="0.3"/>
    </g>
    <rect id="Rectángulo_15" data-name="Rectángulo 15" width="87.872" height="9.09" transform="translate(536.313 574.006)" fill="#f5b618" opacity="0.3"/>
    <rect id="Rectángulo_16" data-name="Rectángulo 16" width="83.122" height="9.09" transform="translate(536.313 593.702)" fill="#f5b618" opacity="0.3"/>
    <rect id="Rectángulo_17" data-name="Rectángulo 17" width="60.561" height="9.09" transform="translate(536.313 613.397)" fill="#f5b618" opacity="0.3"/>
    <rect id="Rectángulo_18" data-name="Rectángulo 18" width="112.113" height="99.992" transform="translate(107.558 455.833)" fill="#f5b618" opacity="0.3"/>
    <rect id="Rectángulo_19" data-name="Rectángulo 19" width="112.113" height="99.992" transform="translate(312.088 455.833)" fill="#3f3d56"/>
    <rect id="Rectángulo_20" data-name="Rectángulo 20" width="112.113" height="99.992" transform="translate(524.193 455.833)" fill="#3f3d56"/>
    <path id="Trazado_67" data-name="Trazado 67" d="M304.858,555.412l-1.479-.029c.032-1.638.956-40.241,16.154-50.911l.849,1.21C305.8,515.923,304.865,555.018,304.858,555.412Z" transform="translate(48.678 -0.007)" fill="#f5b618"/>
    <circle id="Elipse_12" data-name="Elipse 12" cx="7.395" cy="7.395" r="7.395" transform="translate(368.636 489.185)" fill="#f5b618"/>
    <path id="Trazado_68" data-name="Trazado 68" d="M322.255,519.057a23.026,23.026,0,0,1-11.88.513,20.984,20.984,0,0,1,21.574-7.4A23.024,23.024,0,0,1,322.255,519.057Z" transform="translate(52.282 3.637)" fill="#f5b618"/>
    <path id="Trazado_69" data-name="Trazado 69" d="M444.858,555.412l-1.479-.029c.032-1.638.956-40.241,16.154-50.911l.849,1.21C445.8,515.923,444.865,555.018,444.858,555.412Z" transform="translate(120.783 -0.007)" fill="#f5b618"/>
    <circle id="Elipse_13" data-name="Elipse 13" cx="7.395" cy="7.395" r="7.395" transform="translate(580.741 489.185)" fill="#f5b618"/>
    <path id="Trazado_70" data-name="Trazado 70" d="M462.255,519.057a23.026,23.026,0,0,1-11.88.513,20.984,20.984,0,0,1,21.574-7.4A23.024,23.024,0,0,1,462.255,519.057Z" transform="translate(124.387 3.637)" fill="#f5b618"/>
    <path id="Trazado_71" data-name="Trazado 71" d="M802.7,808.165H77V388.5H802.7Zm-722.672-3.03H799.669V391.53H80.027Z" transform="translate(-67.916 -59.737)" fill="#2f2e41"/>
    <rect id="Rectángulo_21" data-name="Rectángulo 21" width="722.672" height="3.03" transform="translate(10.596 359.162)" fill="#2f2e41"/>
    <g id="Cabeza" transform="translate(-52 -3581)">
      <path id="Trazado_72" data-name="Trazado 72" d="M343,115.163a9.611,9.611,0,0,0-5.575,1.245c-1.658,1.136-2.7,3.126-3.771,4.977a59.536,59.536,0,0,1-16.219,18.32c-4.819,3.53-10.946,7.932-10.122,14.442a19.518,19.518,0,0,0,2.349,6.1c4.446,8.974,16.578,15.91,15.384,26.15,4.417-7.395-1.491-11.051,2.926-18.445,2.1-3.521,5.758-7.5,8.933-5.285,1.063.74,1.762,2.069,2.869,2.718,2.642,1.55,5.453-1.414,7.791-3.513,8.064-7.239,19.532-5.343,29.567-3.087,4.737,1.065,9.941,2.462,12.742,6.99,3.682,5.953-3.5,12.383-5.313,19.113a3.668,3.668,0,0,0,3.936,4.564c3.011-.3,6.578-.54,6.756-1.862,3.788.135,8.43-.294,10.053-4.239a16.586,16.586,0,0,0,.778-4.824c.6-6.626,3.408-12.671,5.271-18.978s2.673-13.7-.471-19.289a22.321,22.321,0,0,0-4.119-5.006C388.928,117.984,365.47,115.137,343,115.163Z" transform="translate(608.527 3793.87)" fill="#2f2e41"/>
      <circle id="Elipse_14" data-name="Elipse 14" cx="38.803" cy="38.803" r="38.803" transform="translate(928.756 3922.933)" fill="#e5a5a5"/>
      <path id="Trazado_73" data-name="Trazado 73" d="M347.893,124.2a11.355,11.355,0,0,0-5.152.864,11.014,11.014,0,0,0-3.485,3.454,48.112,48.112,0,0,1-14.99,12.715c-4.454,2.45-10.116,5.505-9.354,10.023a11.772,11.772,0,0,0,2.171,4.231,29.547,29.547,0,0,1,4.676,20.744l12.247-15.4c1.944-2.444,5.321-5.2,8.256-3.668.983.514,1.628,1.436,2.651,1.887,2.442,1.076,5.039-.981,7.2-2.438,7.453-5.024,18.052-3.708,27.326-2.143,4.378.739,9.188,1.709,11.776,4.851,4.3,5.222-.19,12.768,2.32,18.8a5.514,5.514,0,0,0,2.652-3.66c3.5.094,7.791-.2,9.291-2.942a8.935,8.935,0,0,0,.719-3.348c.551-4.6,3.15-8.794,4.872-13.171s2.47-9.507-.435-13.387a17.484,17.484,0,0,0-3.807-3.475C390.338,126.156,368.657,124.178,347.893,124.2Z" transform="matrix(0.995, 0.105, -0.105, 0.995, 625.624, 3758.323)" fill="#2f2e41"/>
    </g>
  </g>
</svg>
