<svg xmlns="http://www.w3.org/2000/svg" width="383" height="244.72" viewBox="0 0 383 244.72">
  <g id="undraw_Freelancer_re_irh4" transform="translate(0 -168.956)">
    <path id="Trazado_294" data-name="Trazado 294" d="M24.852.122a7.174,7.174,0,0,0-3.9.736A9.048,9.048,0,0,0,18.347,4,37.78,37.78,0,0,1,7.128,15.542C3.776,17.747-.485,20.5.154,24.668a12.218,12.218,0,0,0,1.706,3.924c3.2,5.787,11.787,10.353,11.043,16.89,3.033-4.681-1.149-7.083,1.885-11.765,1.445-2.229,3.974-4.732,6.224-3.284.754.485,1.256,1.342,2.039,1.769,1.869,1.02,3.816-.845,5.438-2.162,5.6-4.543,13.666-3.206,20.733-1.655,3.336.732,7,1.682,9.011,4.608,2.64,3.847-2.342,7.881-3.554,12.166a2.236,2.236,0,0,0,.574,2.127,2.783,2.783,0,0,0,2.232.835C59.6,47.963,62.1,47.845,62.211,47c2.661.127,5.917-.1,7.02-2.6a9.6,9.6,0,0,0,.5-3.077c.357-4.231,2.276-8.067,3.526-12.08s1.751-8.731-.508-12.341a15.313,15.313,0,0,0-2.938-3.246C57.125,2.421,40.628.347,24.852.122Z" transform="matrix(0.985, 0.174, -0.174, 0.985, 165.293, 168.85)" fill="#2f2e41"/>
    <path id="Trazado_108" data-name="Trazado 108" d="M654.5,606.66h-381a1,1,0,0,1,0-2h381a1,1,0,0,1,0,2Z" transform="translate(-272.5 -243.16)" fill="#3f3d56"/>
    <path id="Trazado_109" data-name="Trazado 109" d="M173.4,378.826l-.715-12.238L219.556,358l1.056,18.064Z" fill="#ffb8b8"/>
    <path id="Trazado_110" data-name="Trazado 110" d="M436.622,598.163h23.644V613.05H421.735A14.887,14.887,0,0,1,436.622,598.163Z" transform="translate(747.34 -113.142) rotate(86.655)" fill="#2f2e41"/>
    <path id="Trazado_111" data-name="Trazado 111" d="M193.789,378.714,186,388.185l-40.236-25.519,11.489-13.978Z" fill="#ffb8b8"/>
    <path id="Trazado_112" data-name="Trazado 112" d="M454.39,629.787h23.644v14.887H439.5A14.887,14.887,0,0,1,454.39,629.787Z" transform="matrix(0.635, -0.773, 0.773, 0.635, -597.32, 343.861)" fill="#2f2e41"/>
    <path id="Trazado_113" data-name="Trazado 113" d="M443.887,577.83l-5.32,25.079a4,4,0,0,0,3.848,4.83l52.3.844a4,4,0,0,0,4-4.695l-4.575-25.922a4,4,0,0,0-3.939-3.3H447.8A4,4,0,0,0,443.887,577.83Z" transform="translate(-272.5 -243.16)" fill="#2f2e41"/>
    <path id="Trazado_114" data-name="Trazado 114" d="M452.559,586.66s-51-32-61-15c-5,8.5-2.5,16.75,1.25,22.875a34.631,34.631,0,0,0,14.4,12.891l41.348,20.234,15-16-10-9Z" transform="translate(-272.5 -243.16)" fill="#2f2e41"/>
    <path id="Trazado_115" data-name="Trazado 115" d="M478.559,581.66s66-19,53,17-62,22-62,22l-5-15,17-12Z" transform="translate(-272.5 -243.16)" fill="#2f2e41"/>
    <circle id="Elipse_22" data-name="Elipse 22" cx="24.561" cy="24.561" r="24.561" transform="translate(174.837 187.104)" fill="#e5a5a5"/>
    <path id="Trazado_295" data-name="Trazado 295" d="M22.345,1.2a6.4,6.4,0,0,0-3.482.467,6.917,6.917,0,0,0-2.225,2.6,29.107,29.107,0,0,1-9.667,9.485c-2.933,1.76-6.664,3.951-5.938,7.583A11.463,11.463,0,0,0,2.71,24.805,28.669,28.669,0,0,1,6.848,41.533l7.67-11.739c1.218-1.863,3.4-3.916,5.476-2.567.7.452,1.178,1.214,1.9,1.617,1.718.962,3.4-.565,4.81-1.633,4.865-3.682,12.169-2.178,18.578-.531,3.026.777,6.357,1.757,8.269,4.371C56.727,35.4,54,41.215,55.99,46.13a3.8,3.8,0,0,0,1.646-2.8c2.4.225,5.316.173,6.217-1.944a7.689,7.689,0,0,0,.339-2.636c.167-3.64,1.753-6.871,2.731-10.284S68.179,21,66.017,17.779a15.35,15.35,0,0,0-2.76-2.932C51.443,4.591,36.535,2.083,22.345,1.2Z" transform="matrix(0.985, 0.174, -0.174, 0.985, 172.504, 169.581)" fill="#2f2e41"/>
    <path id="Trazado_116" data-name="Trazado 116" d="M473.185,585.629a131.994,131.994,0,0,1-30.257-3.986l-.293-.08L428.93,518.518a23.225,23.225,0,0,1,14.933-26.943,80.459,80.459,0,0,1,51.3-1.025h0A23.47,23.47,0,0,1,510.8,518.315l-15.308,63.2-.216.1C488.911,584.626,480.956,585.629,473.185,585.629Z" transform="translate(-272.5 -243.16)" fill="#ccc"/>
    <path id="Trazado_117" data-name="Trazado 117" d="M454.774,590.526a10.056,10.056,0,0,1,14.475-5.312l26.987-23.424,2.442,18.409-26,19.422a10.11,10.11,0,0,1-17.9-9.094Z" transform="translate(-272.5 -243.16)" fill="#ffb8b8"/>
    <path id="Trazado_118" data-name="Trazado 118" d="M480.512,595.636a4.532,4.532,0,0,1-1.3-.19,4.453,4.453,0,0,1-2.962-2.816L473,583.4a4.472,4.472,0,0,1,1.3-4.9l36.769-22.074-14.494-64.661.369-.089c.15-.037,15-3.417,21.086,12.81,4.261,11.365,20.031,36.077,18.919,52.776a14.885,14.885,0,0,1-12.322,13.727L483.236,594.7a4.456,4.456,0,0,1-2.724.935Z" transform="translate(-272.5 -243.16)" fill="#ccc"/>
    <path id="Trazado_119" data-name="Trazado 119" d="M484.636,588.333a10.056,10.056,0,0,0-14.475-5.312L443.174,559.6,440.732,578l26,19.422a10.11,10.11,0,0,0,17.9-9.094Z" transform="translate(-272.5 -243.16)" fill="#ffb8b8"/>
    <path id="Trazado_120" data-name="Trazado 120" d="M461.606,595.636a4.456,4.456,0,0,1-2.724-.935l-44.388-21.713a14.885,14.885,0,0,1-12.322-13.727c-1.113-16.7,17.658-43.411,21.919-54.776,6.085-16.228,20.936-12.849,21.086-12.81l.369.089-17.494,66.661L467.82,578.5a4.472,4.472,0,0,1,1.3,4.9l-3.257,9.229a4.453,4.453,0,0,1-2.962,2.816A4.534,4.534,0,0,1,461.606,595.636Z" transform="translate(-272.5 -243.16)" fill="#ccc"/>
    <path id="Trazado_121" data-name="Trazado 121" d="M514.559,605.66h-89a7.008,7.008,0,0,1-7-7v-49a7.008,7.008,0,0,1,7-7h89a7.008,7.008,0,0,1,7,7v49A7.008,7.008,0,0,1,514.559,605.66Z" transform="translate(-272.5 -243.16)" fill="#f5b618"/>
    <circle id="Elipse_23" data-name="Elipse 23" cx="6" cy="6" r="6" transform="translate(191.559 325)" fill="#fff"/>
    <path id="Trazado_123" data-name="Trazado 123" d="M305.162,594.979a122.043,122.043,0,0,1,10.1-38.518q2.28-5.092,5.018-9.961a.744.744,0,0,0-1.284-.75,123.729,123.729,0,0,0-13.768,37.982q-1.034,5.583-1.554,11.246c-.088.952,1.4.946,1.486,0Z" transform="translate(-272.5 -243.16)" fill="#e6e6e6"/>
    <circle id="Elipse_24" data-name="Elipse 24" cx="9.414" cy="9.414" r="9.414" transform="translate(41.967 286.896)" fill="#f5b618"/>
    <path id="Trazado_124" data-name="Trazado 124" d="M306.125,595.229a79.175,79.175,0,0,1,6.553-24.988q1.479-3.3,3.255-6.462a.483.483,0,0,0-.833-.487,80.268,80.268,0,0,0-8.932,24.641q-.671,3.622-1.008,7.3C305.1,595.847,306.068,595.843,306.125,595.229Z" transform="translate(-272.5 -243.16)" fill="#e6e6e6"/>
    <circle id="Elipse_25" data-name="Elipse 25" cx="6.108" cy="6.108" r="6.108" transform="translate(39.662 309.95)" fill="#f5b618"/>
    <path id="Trazado_125" data-name="Trazado 125" d="M304.908,594.652a79.175,79.175,0,0,1-10.2-23.733q-.866-3.515-1.408-7.1a.483.483,0,0,0-.956.128,80.268,80.268,0,0,0,8.113,24.922q1.7,3.269,3.692,6.373C304.482,595.767,305.241,595.171,304.908,594.652Z" transform="translate(-272.5 -243.16)" fill="#e6e6e6"/>
    <circle id="Elipse_26" data-name="Elipse 26" cx="6.108" cy="6.108" r="6.108" transform="translate(13.727 309.521)" fill="#f5b618"/>
    <path id="Trazado_126" data-name="Trazado 126" d="M286.159,600.056v-12a4.505,4.505,0,0,1,4.5-4.5h28a4.505,4.505,0,0,1,4.5,4.5v12a4.505,4.505,0,0,1-4.5,4.5h-28a4.505,4.505,0,0,1-4.5-4.5Z" transform="translate(-272.5 -243.16)" fill="#f2f2f2"/>
    <path id="Trazado_127" data-name="Trazado 127" d="M586.909,614.061c0,6.577-5.332,9.567-11.909,9.567s-11.909-2.99-11.909-9.567,2.647-14.251,11.909-11.6C584.262,598.487,586.909,607.484,586.909,614.061Z" transform="translate(-272.5 -243.16)" fill="#ff6584"/>
    <path id="Trazado_128" data-name="Trazado 128" d="M574.42,605.537a1.9,1.9,0,0,1-1.891-1.659c-.394-3.281-2.568-9.708-3.484-12.318h0a1.7,1.7,0,0,1,.22-1.566,1.787,1.787,0,0,1,2.663-.192,1.7,1.7,0,0,1,.468,1.276c-.179,3.351,2.263,8.765,3.735,11.694a1.908,1.908,0,0,1-1.51,2.756,1.756,1.756,0,0,1-.2.011Z" transform="translate(-272.5 -243.16)" fill="#3f3d56"/>
    <path id="Trazado_129" data-name="Trazado 129" d="M583.232,598.146c4.134-3.383.891-10.308-4.283-8.978a4.178,4.178,0,0,0-1.864.994c-3.174,3-3.666,10.669-3.666,10.669S579.024,601.59,583.232,598.146Z" transform="translate(-272.5 -243.16)" fill="#3f3d56"/>
  </g>
</svg>
